<svg width="30" height="30" viewBox="0 0 30 30" fill="none" xmlns="http://www.w3.org/2000/svg">
<g clip-path="url(#clip0_2563_935)">
<path d="M15 0C6.7285 0 0 6.7285 0 15C0 23.2715 6.7285 30 15 30C23.2715 30 30 23.2703 30 15C30 6.72967 23.2715 0 15 0ZM15 27.6762C8.01123 27.6762 2.32377 21.9899 2.32377 15C2.32377 8.01006 8.01123 2.32377 15 2.32377C21.9899 2.32377 27.6762 8.01006 27.6762 15C27.6762 21.9899 21.9888 27.6762 15 27.6762Z" fill="#1420BE"/>
<path d="M21.8819 9.78317C21.409 9.35326 20.6735 9.38696 20.2413 9.86215L13.1538 17.6666L9.72967 14.1856C9.27767 13.7278 8.54338 13.7208 8.08676 14.1717C7.62896 14.6213 7.62199 15.3568 8.07281 15.8146L12.359 20.1717C12.5786 20.3947 12.876 20.5191 13.1874 20.5191C13.1944 20.5191 13.2025 20.5191 13.2095 20.5202C13.5302 20.5133 13.8323 20.3762 14.0472 20.1391L21.9608 11.425C22.392 10.9485 22.3571 10.2142 21.8819 9.78317Z" fill="#1420BE"/>
</g>
<defs>
<clipPath id="clip0_2563_935">
<rect width="30" height="30" fill="white"/>
</clipPath>
</defs>
</svg>
