<svg width="76" height="76" viewBox="0 0 76 76" fill="none" xmlns="http://www.w3.org/2000/svg">
<g clip-path="url(#clip0_234_911)">
<path d="M22.8515 49.9634C24.4285 51.363 25.3341 53.4024 25.3341 55.5556V58.2663C25.3341 62.4589 28.7415 65.8662 32.934 65.8662H43.0673C47.2598 65.8662 50.6672 62.4589 50.6672 58.2663V55.5556C50.6672 53.4087 51.5855 51.3567 53.1815 49.9316C59.0525 44.7066 61.7758 36.904 60.4838 29.0636C58.8815 19.4054 50.9902 11.7171 41.2809 10.3617C31.23 8.9557 21.5965 14.1489 17.3292 23.3006C15.9168 26.328 15.2012 29.5706 15.2012 32.9335C15.2012 39.4441 17.9876 45.6504 22.8515 49.9634ZM45.6003 58.2663C45.6003 59.666 44.4666 60.7996 43.0669 60.7996H32.9337C31.534 60.7996 30.4004 59.666 30.4004 58.2663V55.733H45.6003V58.2663ZM21.9209 25.4411C25.2396 18.3289 32.7445 14.2882 40.579 15.3776C48.1156 16.4289 54.2399 22.4011 55.4812 29.8871C56.4945 36.005 54.3729 42.0786 49.8129 46.144C48.4006 47.398 47.3176 48.9561 46.6019 50.6597L40.5346 50.6661V39.0508L44.8603 34.7251C45.8483 33.7371 45.8483 32.1347 44.8603 31.1405C43.8723 30.1525 42.2699 30.1525 41.2757 31.1405L38.0015 34.4148L34.7272 31.1405C33.7392 30.1525 32.1368 30.1525 31.1426 31.1405C30.1546 32.1285 30.1546 33.7309 31.1426 34.7251L35.4683 39.0508V50.6661H29.3947C28.679 48.9624 27.615 47.4171 26.2154 46.1695C22.4345 42.8192 20.2684 37.9995 20.2684 32.9329C20.2684 30.3109 20.8253 27.797 21.9209 25.4411Z" fill="#1420BE"/>
<path d="M73.4671 30.4005H68.4005C67.0008 30.4005 65.8672 31.5341 65.8672 32.9338C65.8672 34.3334 67.0008 35.4671 68.4005 35.4671H73.4671C74.8668 35.4671 76.0004 34.3334 76.0004 32.9338C76.0004 31.5341 74.8668 30.4005 73.4671 30.4005Z" fill="#1420BE"/>
<path d="M64.3333 20.2674C64.7639 20.2674 65.2009 20.1597 65.5999 19.9254L69.9888 17.3921C71.1985 16.6891 71.6165 15.1438 70.9135 13.9341C70.2105 12.7245 68.6589 12.3065 67.4555 13.0094C67.4555 13.0094 63.0793 15.5364 63.0666 15.5428C60.8816 16.7968 61.7999 20.2674 64.3333 20.2674Z" fill="#1420BE"/>
<path d="M69.9844 48.4747L65.5955 45.9414C64.3859 45.2384 62.8343 45.6564 62.1376 46.866C61.4409 48.0757 61.8526 49.6273 63.0622 50.324C63.0622 50.324 67.4448 52.851 67.4512 52.8573C68.6038 53.5223 70.2187 53.1359 70.9091 51.9326C71.6121 50.723 71.1941 49.1714 69.9844 48.4747Z" fill="#1420BE"/>
<path d="M10.1332 32.9338C10.1332 31.5341 8.99958 30.4005 7.59993 30.4005H2.53331C1.13366 30.4005 0 31.5341 0 32.9338C0 34.3334 1.13366 35.4671 2.53331 35.4671H7.59993C8.99958 35.4671 10.1332 34.3334 10.1332 32.9338Z" fill="#1420BE"/>
<path d="M6.01622 17.3911C6.01622 17.3911 10.3925 19.9181 10.4051 19.9244C11.5515 20.5894 13.1727 20.1967 13.8631 18.9997C14.5597 17.7901 14.1481 16.2385 12.9384 15.5418L8.54952 13.0085C7.33987 12.3055 5.78825 12.7235 5.09157 13.9331C4.38858 15.1428 4.80657 16.6944 6.01622 17.3911Z" fill="#1420BE"/>
<path d="M7.28463 53.1992C7.71529 53.1992 8.1523 53.0916 8.55129 52.8572L12.9402 50.3239C14.1499 49.6209 14.5678 48.0756 13.8649 46.866C13.1619 45.65 11.6166 45.2383 10.4069 45.9413C10.4069 45.9413 6.03064 48.4683 6.01799 48.4746C3.83294 49.7286 4.75766 53.1992 7.28463 53.1992Z" fill="#1420BE"/>
</g>
<defs>
<clipPath id="clip0_234_911">
<rect width="76" height="76" fill="white"/>
</clipPath>
</defs>
</svg>
