<svg width="76" height="76" viewBox="0 0 76 76" fill="none" xmlns="http://www.w3.org/2000/svg">
<path d="M64.9089 9.73721H2.09105C0.940014 9.73721 0 10.6772 0 11.8283V64.1717C0 65.3323 0.940014 66.2628 2.09105 66.2628H64.9089C66.0696 66.2628 67 65.3228 67 64.1717V11.8283C67 10.6676 66.06 9.73721 64.9089 9.73721ZM62.8179 62.0807H4.1917V13.9289H62.8179V62.0903V62.0807ZM17.8027 53.6109C21.2366 53.6109 24.0183 50.8101 24.0087 47.3762C24.0087 46.0525 23.5771 44.7671 22.8001 43.7024L29.5721 33.6117C30.0709 33.7459 30.5792 33.8131 31.0876 33.8131C31.9413 33.8131 32.7854 33.6308 33.5719 33.2855L42.0129 42.2828C40.4398 45.3331 41.6292 49.0739 44.6795 50.647C47.7297 52.2201 51.4706 51.0307 53.0437 47.9804C54.1947 45.7551 53.8974 43.0598 52.2859 41.1414L57.9835 28.5087C58.4535 27.4536 57.9835 26.2162 56.9284 25.7366C55.8733 25.2666 54.6359 25.7366 54.1563 26.7918L48.6409 39.0503C48.2764 38.9832 47.912 38.9448 47.5379 38.9448C46.6842 38.9448 45.8497 39.127 45.0631 39.4724L36.6414 30.4271C38.1953 27.3673 36.9675 23.636 33.9077 22.0821C30.8478 20.5282 27.1165 21.756 25.5626 24.8158C25.1214 25.6791 24.9008 26.6287 24.8912 27.5975C24.8912 28.9212 25.3228 30.2161 26.119 31.2808L19.347 41.3716C18.8387 41.2373 18.3207 41.1606 17.7931 41.1414C14.3592 40.9975 11.4624 43.6641 11.3281 47.098C11.1843 50.5319 13.8508 53.4287 17.2848 53.563C17.4574 53.563 17.6205 53.563 17.7931 53.563V53.6014L17.8027 53.6109ZM49.5618 45.1124C49.5618 46.2347 48.6505 47.1459 47.5283 47.1459C46.406 47.1459 45.4948 46.2347 45.4948 45.1124C45.4948 43.9902 46.406 43.0789 47.5283 43.0789C48.6505 43.0789 49.5618 43.9902 49.5618 45.1124ZM31.0876 25.5736C32.2099 25.5736 33.1211 26.4848 33.1211 27.6071C33.1211 28.7293 32.2099 29.6406 31.0876 29.6406C29.9654 29.6406 29.0541 28.7293 29.0541 27.6071C29.0541 27.6071 29.0541 27.6071 29.0541 27.5975C29.0541 26.4848 29.9462 25.5832 31.0492 25.5736C31.0588 25.5736 31.0684 25.5736 31.078 25.5736H31.0876ZM17.8027 45.3331C18.925 45.3331 19.8362 46.2443 19.8362 47.3666C19.8362 48.4888 18.925 49.4001 17.8027 49.4001C16.7092 49.4001 15.8076 48.5272 15.7692 47.4337C15.7309 46.321 16.6037 45.381 17.7164 45.3427C17.7452 45.3427 17.7739 45.3427 17.8027 45.3427V45.3331Z" fill="#1420BE"/>
</svg>
