<svg width="76" height="76" viewBox="0 0 76 76" fill="none" xmlns="http://www.w3.org/2000/svg">
<path d="M48.0859 50.0214V38C48.0859 36.6705 47.0112 35.5958 45.6816 35.5958C44.3521 35.5958 43.2773 36.6705 43.2773 38V50.0214C43.2773 51.351 44.3521 52.4257 45.6816 52.4257C47.0112 52.4257 48.0859 51.351 48.0859 50.0214Z" fill="#1420BE"/>
<path d="M28.8515 50.0214V38C28.8515 36.6705 27.7744 35.5958 26.4472 35.5958C25.1201 35.5958 24.043 36.6705 24.043 38V50.0214C24.043 51.351 25.1201 52.4257 26.4472 52.4257C27.7744 52.4257 28.8515 51.351 28.8515 50.0214Z" fill="#1420BE"/>
<path d="M55.2985 62.0428H42.8323C42.1062 60.004 40.505 58.4027 38.4686 57.679V30.7872C38.4686 29.4576 37.3915 28.3829 36.0643 28.3829C34.7371 28.3829 33.66 29.4576 33.66 30.7872V57.679C31.6236 58.4051 30.0199 60.0064 29.2938 62.0428H16.8301C15.5029 62.0428 14.4258 63.1175 14.4258 64.4471C14.4258 65.7766 15.5029 66.8513 16.8301 66.8513H29.2962C30.2916 69.6427 32.9363 71.6599 36.0643 71.6599C39.1923 71.6599 41.837 69.6427 42.8323 66.8513H55.2985C56.6281 66.8513 57.7028 65.7766 57.7028 64.4471C57.7028 63.1175 56.6281 62.0428 55.2985 62.0428ZM36.0643 66.8513C34.7395 66.8513 33.66 65.7742 33.66 64.4471C33.66 63.1199 34.7395 62.0428 36.0643 62.0428C37.3891 62.0428 38.4686 63.1199 38.4686 64.4471C38.4686 65.7742 37.3891 66.8513 36.0643 66.8513Z" fill="#1420BE"/>
<path d="M64.916 62.0428H62.5117C61.1821 62.0428 60.1074 63.1175 60.1074 64.4471C60.1074 65.7766 61.1821 66.8513 62.5117 66.8513H64.916C66.2455 66.8513 67.3203 65.7766 67.3203 64.4471C67.3203 63.1175 66.2455 62.0428 64.916 62.0428Z" fill="#1420BE"/>
<path d="M9.61715 62.0428H7.21287C5.88571 62.0428 4.80859 63.1175 4.80859 64.4471C4.80859 65.7766 5.88571 66.8513 7.21287 66.8513H9.61715C10.9443 66.8513 12.0214 65.7766 12.0214 64.4471C12.0214 63.1175 10.9443 62.0428 9.61715 62.0428Z" fill="#1420BE"/>
<path d="M62.3454 26.1878C61.2827 19.2707 55.2936 13.9572 48.0856 13.9572C47.2585 13.9572 46.4338 14.0414 45.6212 14.1856C42.3249 8.31677 36.0474 4.34009 28.8514 4.34009C18.2461 4.34009 9.61712 12.969 9.61712 23.5743C9.61712 24.4519 9.67482 25.327 9.79023 26.1854C4.22432 27.2336 0 32.1336 0 38C0 44.6286 5.3928 50.0214 12.0214 50.0214H19.2342C20.5614 50.0214 21.6385 48.9467 21.6385 47.6171C21.6385 46.2876 20.5614 45.2128 19.2342 45.2128H12.0214C8.04472 45.2128 4.80856 41.9767 4.80856 38C4.80856 34.0233 8.04472 30.7872 12.0214 30.7872C12.1801 30.7896 12.3243 30.7872 12.483 30.7992C13.2933 30.8761 14.0626 30.5539 14.5723 29.936C15.082 29.3181 15.2503 28.4887 15.0219 27.7217C14.6252 26.3897 14.4257 24.9953 14.4257 23.5743C14.4257 15.6186 20.8956 9.14865 28.8514 9.14865C36.8071 9.14865 43.277 15.6186 43.277 23.5743C43.277 24.9039 44.3517 25.9786 45.6813 25.9786C47.0109 25.9786 48.0856 24.9039 48.0856 23.5743C48.0856 21.9274 47.8548 20.3406 47.4653 18.8163C47.6721 18.8018 47.8788 18.7658 48.0856 18.7658C53.3894 18.7658 57.7027 23.079 57.7027 28.3829C57.7027 29.7124 58.7774 30.7872 60.107 30.7872C64.0837 30.7872 67.3198 34.0233 67.3198 38C67.3198 41.9767 64.0837 45.2128 60.107 45.2128H52.8941C51.5646 45.2128 50.4899 46.2876 50.4899 47.6171C50.4899 48.9467 51.5646 50.0214 52.8941 50.0214H60.107C66.7356 50.0214 72.1284 44.6286 72.1284 38C72.1284 32.136 67.9065 27.2384 62.3454 26.1878Z" fill="#1420BE"/>
</svg>
