<svg width="76" height="76" viewBox="0 0 76 76" fill="none" xmlns="http://www.w3.org/2000/svg">
<path d="M3.97131 12.2851C3.02415 12.8534 2.71702 14.0819 3.28531 15.0291C3.85361 15.9762 5.08213 16.2834 6.02929 15.7151L8.8856 14.0013C9.9775 13.3461 11.2269 13.0001 12.5003 13.0001H13.3392C14.0637 13.0001 14.7745 13.197 15.3957 13.5697C18.262 15.2895 21.8956 15.0451 24.5058 12.9569L26.2497 11.5618C27.1122 10.8718 27.2521 9.61321 26.562 8.75068C25.872 7.88816 24.6134 7.74832 23.7509 8.43834L22.007 9.83344C20.7024 10.8771 18.8863 10.9993 17.4537 10.1397C16.2108 9.39399 14.7886 9.00007 13.3392 9.00007H12.5003C10.5019 9.00007 8.5412 9.54318 6.82758 10.5713L3.97131 12.2851Z" fill="#1420BE"/>
<path fill-rule="evenodd" clip-rule="evenodd" d="M35 14C33.8954 14 33 14.8954 33 16V40H29V28C29 27.3487 28.6829 26.7382 28.15 26.3637C27.6172 25.9892 26.9354 25.8976 26.3226 26.1182L1.32256 35.1182C0.52904 35.4039 0 36.1566 0 37V66C0 67.1046 0.89543 68 2 68H58C59.1046 68 60 67.1046 60 66V42C60 40.8954 59.1046 40 58 40H52.652L47.964 15.6223C47.7829 14.6806 46.9589 14 46 14H35ZM48.5787 40L44.348 18H37V40H48.5787ZM27 44C25.8954 44 25 43.1046 25 42V30.8457L4 38.4057V64H56V44H27Z" fill="#1420BE"/>
<path d="M3.28531 24.029C2.71702 23.0818 3.02415 21.8533 3.97131 21.285L6.82758 19.5713C8.5412 18.5431 10.5019 18 12.5003 18H13.3392C14.7886 18 16.2108 18.3939 17.4537 19.1396C18.8863 19.9992 20.7024 19.8771 22.007 18.8334L23.7509 17.4383C24.6134 16.7483 25.872 16.8881 26.562 17.7506C27.2521 18.6131 27.1122 19.8717 26.2497 20.5618L24.5058 21.9569C21.8956 24.045 18.262 24.2894 15.3957 22.5696C14.7745 22.1969 14.0637 22 13.3392 22H12.5003C11.2269 22 9.9775 22.3461 8.8856 23.0012L6.02929 24.715C5.08213 25.2833 3.85361 24.9762 3.28531 24.029Z" fill="#1420BE"/>
</svg>
