<svg width="76" height="76" viewBox="0 0 76 76" fill="none" xmlns="http://www.w3.org/2000/svg">
<path d="M61.7438 10.9596C61.4826 8.93527 59.9154 7.43334 57.9563 7.17213C52.8628 6.58441 39.6066 6.38851 26.2197 17.6204C25.2402 18.404 23.9995 18.7958 22.8241 18.5999C17.8611 17.6857 13.3553 18.9917 10.0902 22.2568L4.60489 27.7421C3.69067 28.7217 3.23356 30.0277 3.49477 31.3337C3.75597 32.6398 4.60489 33.7499 5.84563 34.3376L12.0493 37.1456L9.82903 40.2148C7.93528 42.8268 8.26179 46.2878 10.482 48.5734L20.5385 58.6298C22.8241 60.8501 26.285 61.1766 28.8971 59.2828L31.9663 57.0626L34.8396 63.2662C35.4273 64.507 36.5374 65.3559 37.8434 65.6171C39.1495 65.8783 40.5208 65.4212 41.435 64.4417L46.8551 58.9563C50.0548 55.7565 51.3609 51.2507 50.5119 46.2878C50.316 45.1124 50.6426 43.8063 51.4915 42.8268C62.6581 29.3094 62.3968 16.0532 61.7438 10.9596ZM48.0305 39.8883C46.3326 41.9126 45.6796 44.5247 46.0714 47.0061C46.5285 49.4876 46.4632 52.9486 43.7206 55.6912L38.6924 60.8501L34.9049 52.6874C34.6436 52.0997 34.0559 51.6425 33.4029 51.4466C32.7499 51.2507 32.0316 51.3813 31.5092 51.7731L26.2197 55.6259C25.4361 56.2137 24.3913 56.0831 23.7383 55.43L13.6818 45.4389C13.0288 44.7859 12.8982 43.741 13.4859 42.9574L17.3387 37.6027C17.7305 37.0803 17.8611 36.362 17.6652 35.7089C17.5346 35.3171 17.3387 34.9906 17.0775 34.6641C16.8816 34.4682 16.6857 34.3376 16.4245 34.207L8.26179 30.4848L13.29 25.4566C16.098 22.6486 19.559 22.5833 22.0404 23.0404C24.5219 23.4975 27.134 22.7792 29.1583 21.0814C41.1738 11.0249 52.9281 11.1555 57.3033 11.5473C57.6951 15.0736 58.3481 27.4156 48.0305 39.8883Z" fill="#1420BE"/>
<path d="M44.7654 24.2814C43.1981 22.7142 41.0432 21.8 38.8229 21.8C36.6026 21.8 34.4477 22.7142 32.8805 24.2814C29.6154 27.5465 29.6154 32.9013 32.8805 36.1663C36.1455 39.4314 41.5003 39.4314 44.7654 36.1663C48.0304 32.9013 48.0304 27.5465 44.7654 24.2814ZM41.5656 32.9666C40.0636 34.4685 37.5822 34.4685 36.0802 32.9666C34.5783 31.4646 34.5783 28.9832 36.0802 27.4812C36.7986 26.7629 37.7781 26.3711 38.8229 26.3058C39.8677 26.3058 40.8473 26.6976 41.5656 27.4159C43.0675 28.9832 43.0675 31.4646 41.5656 32.9666Z" fill="#1420BE"/>
<path d="M7.54234 53.1443C8.45656 52.2301 8.45656 50.8588 7.54234 49.9445C6.62812 49.0303 5.25678 49.0303 4.34256 49.9445L0.685667 53.6014C-0.228556 54.5157 -0.228556 55.887 0.685667 56.8012C1.59989 57.7154 2.97122 57.7154 3.88545 56.8012L7.54234 53.1443Z" fill="#1420BE"/>
<path d="M13.3549 55.7567C12.4407 54.8424 11.0693 54.8424 10.1551 55.7567L4.53918 61.3726C3.62496 62.2868 3.62496 63.6582 4.53918 64.5724C5.45341 65.4866 6.82474 65.4866 7.73896 64.5724L13.3549 58.9564C14.2691 58.0422 14.2691 56.6056 13.3549 55.7567Z" fill="#1420BE"/>
<path d="M15.9656 61.5029L12.3087 65.1598C11.3945 66.074 11.3945 67.4453 12.3087 68.3596C13.2229 69.2738 14.5943 69.2738 15.5085 68.3596L19.1654 64.7027C20.0796 63.7885 20.0796 62.4171 19.1654 61.5029C18.2512 60.5887 16.8798 60.654 15.9656 61.5029Z" fill="#1420BE"/>
</svg>
